# xmcd CD database file
#
# Track frame offsets:
#	150
#	47093
#	94366
#	123519
#	161726
#	213587
#	259056
#	278018
#	321681
#
# Disc length: 4509 seconds
#
# Revision: 0
# Processed by: cddbd v1.5.2PL0 Copyright (c) Steve Scherf et al.
# Submitted via: CDex 1.51
#
DISCID=8c119b09
DTITLE=Govindas &Radha - Waves of Love
DYEAR=2007
DGENRE=New Age
TTITLE0=Ganesha
TTITLE1=Jaya Bhagavan
TTITLE2=Radhe
TTITLE3=Kashi Shri Ram
TTITLE4=Hanuman Chalisa
TTITLE5=Krishna Chant
TTITLE6=Jay Jay Ma 
TTITLE7=Namah Shivaya
TTITLE8=Sita Ram
EXTD=YEAR: 2007
EXTT0=
EXTT1=
EXTT2=
EXTT3=
EXTT4=
EXTT5=
EXTT6=
EXTT7=
EXTT8=
PLAYORDER=
